{"extensions":{"PTC_onshape_metadata":{"documentId":"3094e1d7fbb4c4351dcd0e1a","elementId":"c785cc2846c2740d77a7bd91"}},"extensionsUsed":["PTC_onshape_metadata"],"accessors":[{"bufferView":0,"byteOffset":0,"componentType":5126,"count":466,"type":"VEC3","max":[0.025,0.025,0.045],"min":[-0.025,-0.045,0.0]},{"bufferView":1,"byteOffset":0,"componentType":5126,"count":466,"type":"VEC3"},{"bufferView":2,"byteOffset":0,"componentType":5123,"count":1212,"type":"SCALAR"}],"asset":{"version":"2.0"},"buffers":[{"uri":"data:application/octet-stream;base64,","byteLength":13608}],"bufferViews":[{"buffer":0,"byteOffset":0,"byteLength":5592},{"buffer":0,"byteOffset":5592,"byteLength":5592},{"buffer":0,"byteOffset":11184,"byteLength":2424}],"materials":[{"pbrMetallicRoughness":{"baseColorFactor":[0.6156863,0.8117647,0.92941177,1.0],"metallicFactor":0.0},"alphaMode":"OPAQUE","doubleSided":false}],"meshes":[{"primitives":[{"attributes":{"POSITION":0,"NORMAL":1},"indices":2,"material":0,"mode":4}]}],"nodes":[{"extensions":{"PTC_onshape_metadata":{"id":["JHD"]}},"name":"Part 1","mesh":0}],"scene":0,"scenes":[{"nodes":[0]}]}