ISO-10303-21;
HEADER;
FILE_DESCRIPTION (( 'STEP AP203' ),
    '1' );
FILE_NAME ('95610A550_Nylon Plastic Washers.STEP',
    '2026-01-10T18:49:38',
    ( 'McMaster Carr Supply' ),
    ( 'McMaster Carr Supply' ),
    'SwSTEP 2.0',
    'SolidWorks 2024',
    '' );
FILE_SCHEMA (( 'CONFIG_CONTROL_DESIGN' ));
ENDSEC;

DATA;
#1 = APPROVAL_ROLE ( '' ) ;
#2 = VECTOR ( 'NONE', #46, 1000.000000000000000 ) ;
#3 = VECTOR ( 'NONE', #230, 1000.000000000000000 ) ;
#4 = PERSON_AND_ORGANIZATION ( #34, #108 ) ;
#5 = DIRECTION ( 'NONE',  ( 0.000000000000000000, 0.000000000000000000, 1.000000000000000000 ) ) ;
#6 = DATE_AND_TIME ( #19, #29 ) ;
#7 = DIRECTION ( 'NONE',  ( 1.000000000000000000, 0.000000000000000000, 0.000000000000000000 ) ) ;
#8 = CARTESIAN_POINT ( 'NONE',  ( 0.000000000000000000, 0.000000000000000000, -0.4000000000000000222 ) ) ;
#9 = CC_DESIGN_DATE_AND_TIME_ASSIGNMENT ( #137, #144, ( #211 ) ) ;
#10 = DIRECTION ( 'NONE',  ( 1.000000000000000000, 0.000000000000000000, -0.000000000000000000 ) ) ;
#11 = AXIS2_PLACEMENT_3D ( 'NONE', #86, #160, #143 ) ;
#12 = VERTEX_POINT ( 'NONE', #208 ) ;
#13 = CC_DESIGN_PERSON_AND_ORGANIZATION_ASSIGNMENT ( #49, #200, ( #71 ) ) ;
#14 = DIRECTION ( 'NONE',  ( -1.000000000000000000, 0.000000000000000000, 0.000000000000000000 ) ) ;
#15 = VERTEX_POINT ( 'NONE', #78 ) ;
#16 = FACE_OUTER_BOUND ( 'NONE', #117, .T. ) ;
#17 =( NAMED_UNIT ( * ) PLANE_ANGLE_UNIT ( ) SI_UNIT ( $, .RADIAN. ) );
#18 = VERTEX_POINT ( 'NONE', #40 ) ;
#19 = CALENDAR_DATE ( 2026, 10, 1 ) ;
#20 = CC_DESIGN_APPROVAL ( #174, ( #211 ) ) ;
#21 = PERSON_AND_ORGANIZATION ( #34, #108 ) ;
#22 = SECURITY_CLASSIFICATION_LEVEL ( 'unclassified' ) ;
#23 = ORIENTED_EDGE ( 'NONE', *, *, #81, .T. ) ;
#24 = CARTESIAN_POINT ( 'NONE',  ( -2.149999999999999911, 0.000000000000000000, -0.4000000000000000222 ) ) ;
#25 = COORDINATED_UNIVERSAL_TIME_OFFSET ( 6, 0, .BEHIND. ) ;
#26 = DIRECTION ( 'NONE',  ( 1.000000000000000000, 0.000000000000000000, 0.000000000000000000 ) ) ;
#27 = VECTOR ( 'NONE', #53, 1000.000000000000000 ) ;
#28 = ADVANCED_FACE ( 'NONE', ( #129 ), #58, .T. ) ;
#29 = LOCAL_TIME ( 12, 49, 38.00000000000000000, #25 ) ;
#30 = APPROVAL ( #119, 'UNSPECIFIED' ) ;
#31 = AXIS2_PLACEMENT_3D ( 'NONE', #159, #5, #7 ) ;
#32 = AXIS2_PLACEMENT_3D ( 'NONE', #171, #190, #228 ) ;
#33 = FACE_BOUND ( 'NONE', #41, .T. ) ;
#34 = PERSON ( 'UNSPECIFIED', 'UNSPECIFIED', 'UNSPECIFIED', ('UNSPECIFIED'), ('UNSPECIFIED'), ('UNSPECIFIED') ) ;
#35 = CARTESIAN_POINT ( 'NONE',  ( 2.149999999999999911, 2.632990618166809235E-16, 0.4000000000000000222 ) ) ;
#36 = CC_DESIGN_PERSON_AND_ORGANIZATION_ASSIGNMENT ( #175, #195, ( #184 ) ) ;
#37 = ORIENTED_EDGE ( 'NONE', *, *, #76, .T. ) ;
#38 = EDGE_LOOP ( 'NONE', ( #205, #165, #113, #59 ) ) ;
#39 = EDGE_LOOP ( 'NONE', ( #242, #170, #191, #206 ) ) ;
#40 = CARTESIAN_POINT ( 'NONE',  ( -2.149999999999999911, 0.000000000000000000, 0.4000000000000000222 ) ) ;
#41 = EDGE_LOOP ( 'NONE', ( #95, #55 ) ) ;
#42 = CC_DESIGN_APPROVAL ( #82, ( #164 ) ) ;
#43 = ADVANCED_FACE ( 'NONE', ( #16 ), #192, .F. ) ;
#44 = MECHANICAL_CONTEXT ( 'NONE', #72, 'mechanical' ) ;
#45 = CALENDAR_DATE ( 2026, 10, 1 ) ;
#46 = DIRECTION ( 'NONE',  ( -0.000000000000000000, -0.000000000000000000, -1.000000000000000000 ) ) ;
#47 = EDGE_CURVE ( 'NONE', #15, #152, #162, .T. ) ;
#48 = APPROVAL_DATE_TIME ( #6, #30 ) ;
#49 = PERSON_AND_ORGANIZATION ( #34, #108 ) ;
#50 = DIRECTION ( 'NONE',  ( 1.000000000000000000, 0.000000000000000000, 0.000000000000000000 ) ) ;
#51 = DIRECTION ( 'NONE',  ( 1.000000000000000000, 0.000000000000000000, -0.000000000000000000 ) ) ;
#52 = AXIS2_PLACEMENT_3D ( 'NONE', #104, #232, #51 ) ;
#53 = DIRECTION ( 'NONE',  ( -0.000000000000000000, -0.000000000000000000, -1.000000000000000000 ) ) ;
#54 = DIRECTION ( 'NONE',  ( -0.000000000000000000, -0.000000000000000000, -1.000000000000000000 ) ) ;
#55 = ORIENTED_EDGE ( 'NONE', *, *, #76, .F. ) ;
#56 = APPROVAL_PERSON_ORGANIZATION ( #98, #82, #88 ) ;
#57 = AXIS2_PLACEMENT_3D ( 'NONE', #60, #244, #153 ) ;
#58 = CYLINDRICAL_SURFACE ( 'NONE', #32, 4.500000000000000000 ) ;
#59 = ORIENTED_EDGE ( 'NONE', *, *, #183, .T. ) ;
#60 = CARTESIAN_POINT ( 'NONE',  ( 0.000000000000000000, 0.000000000000000000, 0.4000000000000000222 ) ) ;
#61 = COORDINATED_UNIVERSAL_TIME_OFFSET ( 6, 0, .BEHIND. ) ;
#62 = EDGE_CURVE ( 'NONE', #18, #131, #226, .T. ) ;
#63 = DATE_AND_TIME ( #161, #128 ) ;
#64 = DIRECTION ( 'NONE',  ( 1.000000000000000000, 0.000000000000000000, 0.000000000000000000 ) ) ;
#65 = SHAPE_DEFINITION_REPRESENTATION ( #151, #236 ) ;
#66 = DIRECTION ( 'NONE',  ( 0.000000000000000000, 0.000000000000000000, 1.000000000000000000 ) ) ;
#67 = APPROVAL_DATE_TIME ( #121, #82 ) ;
#68 = APPROVAL_PERSON_ORGANIZATION ( #213, #30, #1 ) ;
#69 = CYLINDRICAL_SURFACE ( 'NONE', #11, 2.149999999999999911 ) ;
#70 = COORDINATED_UNIVERSAL_TIME_OFFSET ( 6, 0, .BEHIND. ) ;
#71 = PRODUCT_DEFINITION ( 'UNKNOWN', '', #164, #246 ) ;
#72 = APPLICATION_CONTEXT ( 'configuration controlled 3d designs of mechanical parts and assemblies' ) ;
#73 = CARTESIAN_POINT ( 'NONE',  ( 0.000000000000000000, 0.000000000000000000, -0.4000000000000000222 ) ) ;
#74 = AXIS2_PLACEMENT_3D ( 'NONE', #240, #127, #204 ) ;
#75 = CYLINDRICAL_SURFACE ( 'NONE', #234, 4.500000000000000000 ) ;
#76 = EDGE_CURVE ( 'NONE', #77, #18, #241, .T. ) ;
#77 = VERTEX_POINT ( 'NONE', #35 ) ;
#78 = CARTESIAN_POINT ( 'NONE',  ( -4.500000000000000000, 0.000000000000000000, 0.4000000000000000222 ) ) ;
#79 = EDGE_LOOP ( 'NONE', ( #209, #122, #23, #245 ) ) ;
#80 = ORIENTED_EDGE ( 'NONE', *, *, #47, .T. ) ;
#81 = EDGE_CURVE ( 'NONE', #93, #247, #149, .T. ) ;
#82 = APPROVAL ( #85, 'UNSPECIFIED' ) ;
#83 = PERSON_AND_ORGANIZATION ( #34, #108 ) ;
#84 = CARTESIAN_POINT ( 'NONE',  ( -4.500000000000000000, 0.000000000000000000, -0.4000000000000000222 ) ) ;
#85 = APPROVAL_STATUS ( 'not_yet_approved' ) ;
#86 = CARTESIAN_POINT ( 'NONE',  ( 0.000000000000000000, 0.000000000000000000, 0.4000000000000000222 ) ) ;
#87 = ADVANCED_FACE ( 'NONE', ( #167 ), #75, .T. ) ;
#88 = APPROVAL_ROLE ( '' ) ;
#89 = DIRECTION ( 'NONE',  ( 1.000000000000000000, 0.000000000000000000, 0.000000000000000000 ) ) ;
#90 = DIRECTION ( 'NONE',  ( -0.000000000000000000, -0.000000000000000000, -1.000000000000000000 ) ) ;
#91 = DIRECTION ( 'NONE',  ( 0.000000000000000000, 0.000000000000000000, 1.000000000000000000 ) ) ;
#92 = CC_DESIGN_PERSON_AND_ORGANIZATION_ASSIGNMENT ( #4, #102, ( #211 ) ) ;
#93 = VERTEX_POINT ( 'NONE', #150 ) ;
#94 = ORIENTED_EDGE ( 'NONE', *, *, #183, .F. ) ;
#95 = ORIENTED_EDGE ( 'NONE', *, *, #221, .F. ) ;
#96 = LOCAL_TIME ( 12, 49, 38.00000000000000000, #70 ) ;
#97 = CIRCLE ( 'NONE', #207, 2.149999999999999911 ) ;
#98 = PERSON_AND_ORGANIZATION ( #34, #108 ) ;
#99 = LOCAL_TIME ( 12, 49, 38.00000000000000000, #61 ) ;
#100 = CC_DESIGN_PERSON_AND_ORGANIZATION_ASSIGNMENT ( #83, #124, ( #164 ) ) ;
#101 = DIRECTION ( 'NONE',  ( 0.000000000000000000, 0.000000000000000000, 1.000000000000000000 ) ) ;
#102 = PERSON_AND_ORGANIZATION_ROLE ( 'classification_officer' ) ;
#103 = ADVANCED_FACE ( 'NONE', ( #203, #33 ), #110, .T. ) ;
#104 = CARTESIAN_POINT ( 'NONE',  ( 0.000000000000000000, 0.000000000000000000, -0.4000000000000000222 ) ) ;
#105 = CALENDAR_DATE ( 2026, 10, 1 ) ;
#106 = CC_DESIGN_SECURITY_CLASSIFICATION ( #211, ( #164 ) ) ;
#107 = CARTESIAN_POINT ( 'NONE',  ( 0.000000000000000000, 0.000000000000000000, 0.4000000000000000222 ) ) ;
#108 = ORGANIZATION ( 'UNSPECIFIED', 'UNSPECIFIED', '' ) ;
#109 = CARTESIAN_POINT ( 'NONE',  ( 0.000000000000000000, 0.000000000000000000, 0.4000000000000000222 ) ) ;
#110 = PLANE ( 'NONE',  #202 ) ;
#111 = EDGE_CURVE ( 'NONE', #15, #247, #239, .T. ) ;
#112 = DIRECTION ( 'NONE',  ( 1.000000000000000000, 0.000000000000000000, 0.000000000000000000 ) ) ;
#113 = ORIENTED_EDGE ( 'NONE', *, *, #111, .T. ) ;
#114 = AXIS2_PLACEMENT_3D ( 'NONE', #107, #182, #89 ) ;
#115 = DIRECTION ( 'NONE',  ( -0.000000000000000000, -0.000000000000000000, -1.000000000000000000 ) ) ;
#116 = ORIENTED_EDGE ( 'NONE', *, *, #130, .F. ) ;
#117 = EDGE_LOOP ( 'NONE', ( #225, #37, #133, #116 ) ) ;
#118 = APPROVAL_STATUS ( 'not_yet_approved' ) ;
#119 = APPROVAL_STATUS ( 'not_yet_approved' ) ;
#120 = CLOSED_SHELL ( 'NONE', ( #146, #28, #103, #210, #87, #43 ) ) ;
#121 = DATE_AND_TIME ( #45, #96 ) ;
#122 = ORIENTED_EDGE ( 'NONE', *, *, #248, .T. ) ;
#123 = FACE_OUTER_BOUND ( 'NONE', #172, .T. ) ;
#124 = PERSON_AND_ORGANIZATION_ROLE ( 'creator' ) ;
#125 = DIRECTION ( 'NONE',  ( 0.000000000000000000, 0.000000000000000000, 1.000000000000000000 ) ) ;
#126 = DIRECTION ( 'NONE',  ( 0.000000000000000000, 0.000000000000000000, 1.000000000000000000 ) ) ;
#127 = DIRECTION ( 'NONE',  ( 0.000000000000000000, 0.000000000000000000, 1.000000000000000000 ) ) ;
#128 = LOCAL_TIME ( 12, 49, 38.00000000000000000, #180 ) ;
#129 = FACE_OUTER_BOUND ( 'NONE', #79, .T. ) ;
#130 = EDGE_CURVE ( 'NONE', #12, #131, #97, .T. ) ;
#131 = VERTEX_POINT ( 'NONE', #24 ) ;
#132 = ORIENTED_EDGE ( 'NONE', *, *, #193, .T. ) ;
#133 = ORIENTED_EDGE ( 'NONE', *, *, #62, .T. ) ;
#134 = CARTESIAN_POINT ( 'NONE',  ( 0.000000000000000000, 0.000000000000000000, 0.4000000000000000222 ) ) ;
#135 = CIRCLE ( 'NONE', #31, 4.500000000000000000 ) ;
#136 = APPLICATION_PROTOCOL_DEFINITION ( 'international standard', 'config_control_design', 1994, #72 ) ;
#137 = DATE_AND_TIME ( #105, #99 ) ;
#138 = LINE ( 'NONE', #194, #2 ) ;
#139 = APPROVAL_DATE_TIME ( #63, #174 ) ;
#140 = CARTESIAN_POINT ( 'NONE',  ( 0.000000000000000000, 0.000000000000000000, 0.000000000000000000 ) ) ;
#141 = LINE ( 'NONE', #217, #3 ) ;
#142 = PERSON_AND_ORGANIZATION ( #34, #108 ) ;
#143 = DIRECTION ( 'NONE',  ( -1.000000000000000000, 0.000000000000000000, 0.000000000000000000 ) ) ;
#144 = DATE_TIME_ROLE ( 'classification_date' ) ;
#145 = CC_DESIGN_PERSON_AND_ORGANIZATION_ASSIGNMENT ( #142, #229, ( #164 ) ) ;
#146 = ADVANCED_FACE ( 'NONE', ( #235 ), #69, .F. ) ;
#147 = APPLICATION_CONTEXT ( 'configuration controlled 3d designs of mechanical parts and assemblies' ) ;
#148 = CARTESIAN_POINT ( 'NONE',  ( 0.000000000000000000, 0.000000000000000000, 0.4000000000000000222 ) ) ;
#149 = CIRCLE ( 'NONE', #212, 4.500000000000000000 ) ;
#150 = CARTESIAN_POINT ( 'NONE',  ( 4.500000000000000000, 5.510910596163088569E-16, -0.4000000000000000222 ) ) ;
#151 = PRODUCT_DEFINITION_SHAPE ( 'NONE', 'NONE',  #71 ) ;
#152 = VERTEX_POINT ( 'NONE', #179 ) ;
#153 = DIRECTION ( 'NONE',  ( 1.000000000000000000, 0.000000000000000000, 0.000000000000000000 ) ) ;
#154 = ORIENTED_EDGE ( 'NONE', *, *, #81, .F. ) ;
#155 =( GEOMETRIC_REPRESENTATION_CONTEXT ( 3 ) GLOBAL_UNCERTAINTY_ASSIGNED_CONTEXT ( ( #214 ) ) GLOBAL_UNIT_ASSIGNED_CONTEXT ( ( #249, #17, #196 ) ) REPRESENTATION_CONTEXT ( 'NONE', 'WORKASPACE' ) );
#156 = EDGE_LOOP ( 'NONE', ( #80, #173 ) ) ;
#157 = AXIS2_PLACEMENT_3D ( 'NONE', #163, #125, #50 ) ;
#158 = APPLICATION_PROTOCOL_DEFINITION ( 'international standard', 'config_control_design', 1994, #147 ) ;
#159 = CARTESIAN_POINT ( 'NONE',  ( 0.000000000000000000, 0.000000000000000000, -0.4000000000000000222 ) ) ;
#160 = DIRECTION ( 'NONE',  ( -0.000000000000000000, -0.000000000000000000, -1.000000000000000000 ) ) ;
#161 = CALENDAR_DATE ( 2026, 10, 1 ) ;
#162 = CIRCLE ( 'NONE', #57, 4.500000000000000000 ) ;
#163 = CARTESIAN_POINT ( 'NONE',  ( 0.000000000000000000, 0.000000000000000000, -0.4000000000000000222 ) ) ;
#164 = PRODUCT_DEFINITION_FORMATION_WITH_SPECIFIED_SOURCE ( 'ANY', '', #184, .NOT_KNOWN. ) ;
#165 = ORIENTED_EDGE ( 'NONE', *, *, #47, .F. ) ;
#166 = MANIFOLD_SOLID_BREP ( 'Boss-Extrude1', #120 ) ;
#167 = FACE_OUTER_BOUND ( 'NONE', #38, .T. ) ;
#168 = CC_DESIGN_APPROVAL ( #30, ( #71 ) ) ;
#169 = DIRECTION ( 'NONE',  ( 1.000000000000000000, 0.000000000000000000, 0.000000000000000000 ) ) ;
#170 = ORIENTED_EDGE ( 'NONE', *, *, #243, .T. ) ;
#171 = CARTESIAN_POINT ( 'NONE',  ( 0.000000000000000000, 0.000000000000000000, 0.4000000000000000222 ) ) ;
#172 = EDGE_LOOP ( 'NONE', ( #94, #154 ) ) ;
#173 = ORIENTED_EDGE ( 'NONE', *, *, #218, .T. ) ;
#174 = APPROVAL ( #118, 'UNSPECIFIED' ) ;
#175 = PERSON_AND_ORGANIZATION ( #34, #108 ) ;
#176 = CC_DESIGN_DATE_AND_TIME_ASSIGNMENT ( #177, #215, ( #71 ) ) ;
#177 = DATE_AND_TIME ( #198, #238 ) ;
#178 = APPROVAL_ROLE ( '' ) ;
#179 = CARTESIAN_POINT ( 'NONE',  ( 4.500000000000000000, 5.510910596163088569E-16, 0.4000000000000000222 ) ) ;
#180 = COORDINATED_UNIVERSAL_TIME_OFFSET ( 6, 0, .BEHIND. ) ;
#181 = VECTOR ( 'NONE', #54, 1000.000000000000000 ) ;
#182 = DIRECTION ( 'NONE',  ( 0.000000000000000000, 0.000000000000000000, 1.000000000000000000 ) ) ;
#183 = EDGE_CURVE ( 'NONE', #247, #93, #135, .T. ) ;
#184 = PRODUCT ( '95610A550_Nylon Plastic Washers', '95610A550_Nylon Plastic Washers', '', ( #44 ) ) ;
#185 = AXIS2_PLACEMENT_3D ( 'NONE', #140, #101, #64 ) ;
#186 = CARTESIAN_POINT ( 'NONE',  ( -4.500000000000000000, 0.000000000000000000, 0.4000000000000000222 ) ) ;
#187 = DIRECTION ( 'NONE',  ( 0.000000000000000000, 0.000000000000000000, 1.000000000000000000 ) ) ;
#188 = EDGE_LOOP ( 'NONE', ( #132, #227 ) ) ;
#189 = CIRCLE ( 'NONE', #157, 2.149999999999999911 ) ;
#190 = DIRECTION ( 'NONE',  ( -0.000000000000000000, -0.000000000000000000, -1.000000000000000000 ) ) ;
#191 = ORIENTED_EDGE ( 'NONE', *, *, #193, .F. ) ;
#192 = CYLINDRICAL_SURFACE ( 'NONE', #223, 2.149999999999999911 ) ;
#193 = EDGE_CURVE ( 'NONE', #131, #12, #189, .T. ) ;
#194 = CARTESIAN_POINT ( 'NONE',  ( 4.500000000000000000, 5.510910596163088569E-16, 0.4000000000000000222 ) ) ;
#195 = PERSON_AND_ORGANIZATION_ROLE ( 'design_owner' ) ;
#196 =( NAMED_UNIT ( * ) SI_UNIT ( $, .STERADIAN. ) SOLID_ANGLE_UNIT ( ) );
#197 = CIRCLE ( 'NONE', #114, 2.149999999999999911 ) ;
#198 = CALENDAR_DATE ( 2026, 10, 1 ) ;
#199 = FACE_BOUND ( 'NONE', #188, .T. ) ;
#200 = PERSON_AND_ORGANIZATION_ROLE ( 'creator' ) ;
#201 = CARTESIAN_POINT ( 'NONE',  ( 0.000000000000000000, 0.000000000000000000, 0.4000000000000000222 ) ) ;
#202 = AXIS2_PLACEMENT_3D ( 'NONE', #148, #187, #10 ) ;
#203 = FACE_OUTER_BOUND ( 'NONE', #156, .T. ) ;
#204 = DIRECTION ( 'NONE',  ( 1.000000000000000000, 0.000000000000000000, 0.000000000000000000 ) ) ;
#205 = ORIENTED_EDGE ( 'NONE', *, *, #248, .F. ) ;
#206 = ORIENTED_EDGE ( 'NONE', *, *, #62, .F. ) ;
#207 = AXIS2_PLACEMENT_3D ( 'NONE', #73, #91, #169 ) ;
#208 = CARTESIAN_POINT ( 'NONE',  ( 2.149999999999999911, 2.632990618166809235E-16, -0.4000000000000000222 ) ) ;
#209 = ORIENTED_EDGE ( 'NONE', *, *, #218, .F. ) ;
#210 = ADVANCED_FACE ( 'NONE', ( #123, #199 ), #219, .F. ) ;
#211 = SECURITY_CLASSIFICATION ( '', '', #22 ) ;
#212 = AXIS2_PLACEMENT_3D ( 'NONE', #8, #126, #112 ) ;
#213 = PERSON_AND_ORGANIZATION ( #34, #108 ) ;
#214 = UNCERTAINTY_MEASURE_WITH_UNIT (LENGTH_MEASURE( 1.000000000000000082E-05 ), #249, 'distance_accuracy_value', 'NONE');
#215 = DATE_TIME_ROLE ( 'creation_date' ) ;
#216 = CIRCLE ( 'NONE', #220, 4.500000000000000000 ) ;
#217 = CARTESIAN_POINT ( 'NONE',  ( 2.149999999999999911, 2.632990618166809235E-16, 0.4000000000000000222 ) ) ;
#218 = EDGE_CURVE ( 'NONE', #152, #15, #216, .T. ) ;
#219 = PLANE ( 'NONE',  #52 ) ;
#220 = AXIS2_PLACEMENT_3D ( 'NONE', #201, #66, #26 ) ;
#221 = EDGE_CURVE ( 'NONE', #18, #77, #197, .T. ) ;
#222 = DIRECTION ( 'NONE',  ( -1.000000000000000000, 0.000000000000000000, 0.000000000000000000 ) ) ;
#223 = AXIS2_PLACEMENT_3D ( 'NONE', #134, #115, #14 ) ;
#224 = CARTESIAN_POINT ( 'NONE',  ( -2.149999999999999911, 0.000000000000000000, 0.4000000000000000222 ) ) ;
#225 = ORIENTED_EDGE ( 'NONE', *, *, #243, .F. ) ;
#226 = LINE ( 'NONE', #224, #181 ) ;
#227 = ORIENTED_EDGE ( 'NONE', *, *, #130, .T. ) ;
#228 = DIRECTION ( 'NONE',  ( -1.000000000000000000, 0.000000000000000000, 0.000000000000000000 ) ) ;
#229 = PERSON_AND_ORGANIZATION_ROLE ( 'design_supplier' ) ;
#230 = DIRECTION ( 'NONE',  ( -0.000000000000000000, -0.000000000000000000, -1.000000000000000000 ) ) ;
#231 = COORDINATED_UNIVERSAL_TIME_OFFSET ( 6, 0, .BEHIND. ) ;
#232 = DIRECTION ( 'NONE',  ( 0.000000000000000000, 0.000000000000000000, 1.000000000000000000 ) ) ;
#233 = PRODUCT_RELATED_PRODUCT_CATEGORY ( 'detail', '', ( #184 ) ) ;
#234 = AXIS2_PLACEMENT_3D ( 'NONE', #109, #90, #222 ) ;
#235 = FACE_OUTER_BOUND ( 'NONE', #39, .T. ) ;
#236 = ADVANCED_BREP_SHAPE_REPRESENTATION ( '95610A550_Nylon Plastic Washers', ( #166, #185 ), #155 ) ;
#237 = APPROVAL_PERSON_ORGANIZATION ( #21, #174, #178 ) ;
#238 = LOCAL_TIME ( 12, 49, 38.00000000000000000, #231 ) ;
#239 = LINE ( 'NONE', #186, #27 ) ;
#240 = CARTESIAN_POINT ( 'NONE',  ( 0.000000000000000000, 0.000000000000000000, 0.4000000000000000222 ) ) ;
#241 = CIRCLE ( 'NONE', #74, 2.149999999999999911 ) ;
#242 = ORIENTED_EDGE ( 'NONE', *, *, #221, .T. ) ;
#243 = EDGE_CURVE ( 'NONE', #77, #12, #141, .T. ) ;
#244 = DIRECTION ( 'NONE',  ( 0.000000000000000000, 0.000000000000000000, 1.000000000000000000 ) ) ;
#245 = ORIENTED_EDGE ( 'NONE', *, *, #111, .F. ) ;
#246 = DESIGN_CONTEXT ( 'detailed design', #147, 'design' ) ;
#247 = VERTEX_POINT ( 'NONE', #84 ) ;
#248 = EDGE_CURVE ( 'NONE', #152, #93, #138, .T. ) ;
#249 =( LENGTH_UNIT ( ) NAMED_UNIT ( * ) SI_UNIT ( .MILLI., .METRE. ) );
ENDSEC;
END-ISO-10303-21;
