{"extensions":{"PTC_onshape_metadata":{"documentId":"3094e1d7fbb4c4351dcd0e1a","elementId":"ef669eb623cfc76bb11527a4"}},"extensionsUsed":["PTC_onshape_metadata"],"accessors":[{"bufferView":0,"byteOffset":0,"componentType":5126,"count":3688,"type":"VEC3","max":[0.025,0.0075,0.005],"min":[-0.025,-0.0075,-0.021568863]},{"bufferView":1,"byteOffset":0,"componentType":5126,"count":3688,"type":"VEC3"},{"bufferView":2,"byteOffset":0,"componentType":5123,"count":10944,"type":"SCALAR"}],"asset":{"version":"2.0"},"buffers":[{"uri":"data:application/octet-stream;base64,","byteLength":110400}],"bufferViews":[{"buffer":0,"byteOffset":0,"byteLength":44256},{"buffer":0,"byteOffset":44256,"byteLength":44256},{"buffer":0,"byteOffset":88512,"byteLength":21888}],"materials":[{"pbrMetallicRoughness":{"baseColorFactor":[0.6156863,0.8117647,0.92941177,1.0],"metallicFactor":0.0},"alphaMode":"OPAQUE","doubleSided":false}],"meshes":[{"primitives":[{"attributes":{"POSITION":0,"NORMAL":1},"indices":2,"material":0,"mode":4}]}],"nodes":[{"extensions":{"PTC_onshape_metadata":{"id":["JHD"]}},"name":"Part 1","mesh":0}],"scene":0,"scenes":[{"nodes":[0]}]}